<?xml version="1.0" encoding="iso-8859-1"?>
<!-- Uploaded to: SVG Repo, www.svgrepo.com, Generator: SVG Repo Mixer Tools -->
<svg height="800px" width="800px" version="1.1" id="Layer_1" xmlns="http://www.w3.org/2000/svg" xmlns:xlink="http://www.w3.org/1999/xlink" 
	 viewBox="0 0 512 512" xml:space="preserve">
<path style="fill:#FFCC99;" d="M172.522,512h-66.783c-9.217,0-16.696-7.473-16.696-16.696V395.13
	c0-31.327,17.272-59.739,45.076-74.152c4.457-2.294,9.696-2.489,14.294-0.505c4.598,1.978,8.065,5.918,9.445,10.734
	c3.565,12.452,11.739,22.908,23.032,29.44c5.152,2.99,8.326,8.495,8.326,14.451v120.206C189.217,504.527,181.739,512,172.522,512z"
	/>
<path style="fill:#FFBF80;" d="M439.652,512H372.87c-9.217,0-16.696-7.473-16.696-16.696V375.098c0-5.957,3.174-11.462,8.326-14.451
	c11.293-6.532,19.467-16.99,23.032-29.44c1.38-4.815,4.847-8.755,9.445-10.734c4.598-1.995,9.848-1.799,14.294,0.505
	c27.805,14.413,45.077,42.825,45.077,74.152v100.174C456.348,504.527,448.869,512,439.652,512z"/>
<path style="fill:#EDF0F2;" d="M389.565,512H155.826V286.054c0-5.967,3.184-11.483,8.359-14.467
	c5.163-2.973,11.543-2.973,16.707,0.022c7.619,4.412,16.043,6.652,25.021,6.652h133.565c8.978,0,17.402-2.239,25.021-6.653
	c5.152-3,11.532-3,16.707-0.022c5.173,2.984,8.359,8.5,8.359,14.467L389.565,512L389.565,512z"/>
<path style="fill:#DAE1E6;" d="M381.206,271.587c-5.173-2.978-11.555-2.978-16.707,0.022c-7.619,4.412-16.043,6.652-25.021,6.652
	h-66.783V512h116.87V286.054C389.565,280.087,386.381,274.571,381.206,271.587z"/>
<path style="fill:#FFDFB3;" d="M339.478,400.696H205.913c-14.728,0-29.174-3.859-41.761-11.153
	c-18.805-10.88-32.435-28.337-38.402-49.141c-2.174-7.201-3.315-15.082-3.315-23.185V133.565h300.522v183.652
	c0,8.103-1.141,15.983-3.391,23.418c-5.891,20.57-19.522,38.027-38.327,48.913C368.652,396.837,354.206,400.696,339.478,400.696z"/>
<path style="fill:#FFCC99;" d="M272.696,400.696h66.783c14.728,0,29.174-3.859,41.761-11.147
	c18.805-10.886,32.435-28.343,38.327-48.913c2.249-7.435,3.39-15.315,3.39-23.418V133.565H272.696V400.696z"/>
<circle style="fill:#736056;" cx="205.913" cy="217.043" r="16.696"/>
<circle style="fill:#665247;" cx="339.478" cy="217.043" r="16.696"/>
<path style="fill:#736056;" d="M339.478,333.913c-18.413,0-33.391-14.978-33.391-33.391h-66.783
	c0,18.413-14.978,33.391-33.391,33.391c-9.217,0-16.696-7.473-16.696-16.696s7.479-16.696,16.696-16.696
	c0-18.413,14.978-33.391,33.391-33.391h66.783c18.413,0,33.391,14.978,33.391,33.391c9.217,0,16.696,7.473,16.696,16.696
	S348.695,333.913,339.478,333.913z"/>
<path style="fill:#EDF0F2;" d="M239.304,66.783h-115.2c-1.113,5.343-1.67,11.019-1.67,16.696v83.478h166.957V116.87
	C289.391,89.155,267.019,66.783,239.304,66.783z"/>
<path style="fill:#E6563A;" d="M339.478,0H205.913c-40.403,0-74.017,28.717-81.809,66.783c-1.113,5.343-1.67,11.019-1.67,16.696
	v16.696h116.87c9.239,0,16.696,7.457,16.696,16.696v16.696H72.348c-9.217,0-16.696,7.473-16.696,16.696s7.479,16.696,16.696,16.696
	h350.609V83.478C422.957,37.398,385.558,0,339.478,0z"/>
<path style="fill:#665247;" d="M339.478,300.522c0-18.413-14.978-33.391-33.391-33.391h-33.391v33.391h33.391
	c0,18.413,14.978,33.391,33.391,33.391c9.217,0,16.696-7.473,16.696-16.696S348.695,300.522,339.478,300.522z"/>
<path style="fill:#FF9F19;" d="M272.696,300.522c-9.217,0-16.696-7.473-16.696-16.696v-66.783c0-9.223,7.479-16.696,16.696-16.696
	c9.217,0,16.696,7.473,16.696,16.696v66.783C289.391,293.049,281.913,300.522,272.696,300.522z"/>
<path style="fill:#F28618;" d="M289.391,283.826v-66.783c0-9.223-7.479-16.696-16.696-16.696v100.174
	C281.913,300.522,289.391,293.049,289.391,283.826z"/>
<path style="fill:#D9472B;" d="M339.478,0h-66.783v166.957h150.261V83.478C422.957,37.398,385.558,0,339.478,0z"/>
</svg>